<?xml version="1.0" standalone="no"?>
<!DOCTYPE svg PUBLIC "-//W3C//DTD SVG 20010904//EN"
 "http://www.w3.org/TR/2001/REC-SVG-20010904/DTD/svg10.dtd">
<svg version="1.0" xmlns="http://www.w3.org/2000/svg"
 width="1024.000000pt" height="1024.000000pt" viewBox="0 0 1024.000000 1024.000000"
 preserveAspectRatio="xMidYMid meet">
<metadata>
Created by potrace 1.16, written by Peter Selinger 2001-2019
</metadata>
<g transform="translate(0.000000,1024.000000) scale(0.100000,-0.100000)"
fill="#000000" stroke="none">
<path d="M3764 8520 c-54 -22 -54 -18 -54 -507 l0 -452 94 -44 c194 -92 305
-207 362 -377 18 -53 19 -103 16 -1169 l-2 -1114 -38 -41 c-157 -171 -222
-396 -177 -611 20 -97 82 -216 160 -310 l67 -80 -4 -333 -5 -333 596 4 596 3
109 27 c288 71 495 167 706 327 292 222 527 542 644 877 77 222 110 419 109
643 -3 479 -139 862 -441 1237 -268 333 -636 555 -1072 650 -100 21 -154 25
-420 33 -168 5 -313 9 -322 9 -17 1 -18 19 -18 241 l0 240 204 0 c331 0 524
-21 761 -82 622 -160 1171 -586 1493 -1158 204 -361 301 -735 303 -1164 2
-718 -310 -1377 -883 -1863 -267 -227 -624 -399 -993 -480 l-130 -28 -640 0
-640 0 -67 23 c-79 28 -192 104 -241 164 -46 57 -102 170 -116 236 -8 38 -11
638 -11 2167 l0 2114 -74 55 c-120 89 -104 86 -177 31 -233 -178 -416 -346
-584 -538 -135 -153 -203 -247 -306 -418 -221 -369 -349 -754 -400 -1209 -17
-154 -6 -559 20 -722 35 -215 92 -419 182 -646 89 -223 192 -405 342 -605 339
-450 721 -749 1238 -970 617 -263 1333 -298 1968 -95 564 180 997 467 1388
918 31 35 121 158 192 260 280 403 466 1002 476 1530 5 299 -15 482 -85 760
-133 526 -405 989 -816 1391 -239 233 -454 385 -749 529 -369 181 -712 275
-1093 300 -132 9 -493 0 -601 -15 -55 -7 -235 14 -308 36 -111 34 -181 77
-269 164 -62 62 -90 99 -122 164 -23 46 -42 94 -42 107 0 47 -30 102 -65 118
-18 9 -35 16 -37 15 -1 0 -13 -4 -24 -9z m-404 -2063 c9 -7 24 -23 33 -37 53
-77 -34 -181 -127 -150 -45 15 -67 41 -73 89 -5 36 -2 44 30 76 29 29 42 35
79 35 23 0 50 -6 58 -13z m1930 -41 c388 -59 753 -330 962 -716 101 -186 158
-429 158 -673 0 -375 -140 -716 -400 -978 -247 -247 -526 -368 -895 -385 -68
-3 -133 -1 -150 5 -24 7 -26 9 -8 10 12 1 25 6 28 11 3 6 12 10 18 10 7 0 6
-4 -3 -10 -13 -9 -13 -10 0 -10 9 0 26 7 38 16 12 8 27 12 32 9 6 -3 10 1 10
9 0 17 -29 11 -42 -8 -5 -8 -8 -7 -8 1 0 16 55 45 65 35 5 -4 5 -2 1 5 -4 7 3
17 16 24 12 6 33 22 47 35 13 13 29 20 35 17 6 -3 8 -2 3 2 -10 11 33 56 46
48 6 -3 7 -1 3 5 -4 6 9 33 29 60 44 62 79 140 111 250 13 47 25 87 27 87 1 1
40 22 87 46 207 106 358 330 400 592 16 99 7 275 -19 374 -52 196 -187 392
-347 500 -126 86 -293 153 -378 153 l-41 0 -2 -788 c-1 -694 -3 -797 -17 -853
-38 -148 -156 -275 -291 -315 -275 -79 -539 121 -523 396 11 189 154 330 358
352 l25 3 3 848 2 847 263 0 c176 0 293 -5 357 -14z m-2060 -411 c37 -19 50
-43 50 -93 0 -66 -26 -81 -145 -82 -154 -2 -154 -2 -186 29 -46 47 -39 118 16
149 31 18 229 15 265 -3z m-83 -443 c57 -32 66 -117 17 -163 -25 -23 -30 -24
-196 -24 l-170 0 -29 33 c-51 57 -29 139 44 162 45 13 306 7 334 -8z m-257
-447 c39 -20 63 -68 56 -109 -13 -67 -96 -112 -154 -82 -67 35 -87 92 -50 146
39 58 92 74 148 45z m272 -485 c28 -28 30 -36 25 -78 -4 -34 -12 -53 -32 -69
-25 -22 -34 -23 -191 -23 l-166 0 -29 29 c-39 39 -40 96 -3 140 l26 31 170 0
170 0 30 -30z m73 -436 c55 -36 53 -125 -3 -162 -41 -26 -222 -23 -260 5 -55
40 -64 94 -23 144 15 19 32 25 83 29 95 8 177 1 203 -16z m141 -445 c31 -29
47 -79 35 -110 -32 -84 -142 -97 -199 -24 -76 96 74 219 164 134z"/>
</g>
</svg>
