<svg width="234" height="618" viewBox="0 0 234 618" fill="none" xmlns="http://www.w3.org/2000/svg">
<path d="M212.777 21.5931H21.3837V95.0347L212.777 21.5931Z" fill="black"/>
<path d="M21.3837 595.772C85.1814 600.965 212.777 581.085 212.777 460.017C173.608 538.355 68.8611 552.004 21.3837 549.036V595.772Z" fill="black"/>
<path d="M79.2467 137.319L159.365 107.186V417.733C159.365 450.389 125.537 481.143 79.2467 481.143V137.319Z" fill="black"/>
<path fill-rule="evenodd" clip-rule="evenodd" d="M212.777 460.017V21.5931L21.3837 95.0347V549.036C68.8611 552.004 173.608 538.355 212.777 460.017ZM159.365 107.186L79.2467 137.319V481.143C125.537 481.143 159.365 450.389 159.365 417.733V107.186Z" fill="white"/>
<path fill-rule="evenodd" clip-rule="evenodd" d="M6.61394 6.04228V609.8C76.0129 616.848 221.751 603.874 227.911 464.494V6.04175L6.61394 6.04228ZM212.777 460.017C212.777 581.085 85.1814 600.965 21.3837 595.772V549.036V95.0347V21.5931H212.777V460.017Z" fill="white"/>
<path d="M212.777 460.017C212.777 581.085 85.1814 600.965 21.3837 595.772V549.036M212.777 460.017C212.777 338.95 212.777 117.29 212.777 21.5931M212.777 460.017C173.608 538.355 68.8611 552.004 21.3837 549.036M212.777 460.017V21.5931M212.777 21.5931H21.3837V95.0347M212.777 21.5931L21.3837 95.0347M21.3837 95.0347V549.036M79.2467 137.319L159.365 107.186V417.733C159.365 450.389 125.537 481.143 79.2467 481.143V137.319ZM6.61394 6.04228V609.8C76.0129 616.848 221.751 603.874 227.911 464.494V6.04175L6.61394 6.04228Z" stroke="black" stroke-width="12"/>
</svg>
